<?xml version="1.0" encoding="utf-8"?>
<!-- Generator: Adobe Illustrator 25.2.3, SVG Export Plug-In . SVG Version: 6.00 Build 0)  -->
<svg version="1.1" id="Layer_1" xmlns="http://www.w3.org/2000/svg" xmlns:xlink="http://www.w3.org/1999/xlink" x="0px" y="0px"
	 viewBox="0 0 62 78" style="enable-background:new 0 0 62 78;" xml:space="preserve">
<style type="text/css">
	.st0{fill:#406AB0;}
	.st1{fill:#672782;}
	.st2{fill:#30A736;}
</style>
<g>
	<g>
		<path class="st0" d="M8.7,74.4c0-0.4-0.2-0.8-0.6-1c-0.4-0.2-1-0.5-2-0.6c-0.9-0.2-1.7-0.4-2.2-0.6c-0.5-0.2-1-0.5-1.2-0.9
			c-0.3-0.3-0.4-0.7-0.4-1.2c0-0.8,0.4-1.4,1.1-2c0.7-0.5,1.7-0.8,2.9-0.8c1.2,0,2.2,0.3,3,0.8c0.8,0.6,1.1,1.3,1.1,2.2H8.6
			c0-0.4-0.2-0.8-0.6-1.2c-0.4-0.3-1-0.5-1.6-0.5c-0.7,0-1.2,0.1-1.6,0.4c-0.4,0.3-0.6,0.6-0.6,1c0,0.4,0.2,0.7,0.5,0.9
			c0.4,0.2,1,0.4,1.9,0.6c0.9,0.2,1.7,0.4,2.2,0.7c0.6,0.3,1,0.6,1.3,0.9c0.3,0.4,0.4,0.8,0.4,1.3c0,0.9-0.4,1.5-1.2,2.1
			c-0.8,0.5-1.8,0.8-3,0.8c-0.9,0-1.6-0.1-2.3-0.4c-0.7-0.3-1.2-0.7-1.6-1.1C2.2,75.1,2,74.6,2,74h1.8c0,0.5,0.3,1,0.7,1.3
			c0.5,0.3,1.1,0.5,1.8,0.5c0.7,0,1.3-0.1,1.7-0.4C8.5,75.2,8.7,74.9,8.7,74.4z"/>
		<path class="st0" d="M16.5,72.5l-1.2,1.1V77h-1.8V63.4h1.8v8.2l1-1.1l3.4-3.2H22l-4.2,4l4.7,5.6h-2.2L16.5,72.5z"/>
		<path class="st0" d="M28.8,77.2c-1.5,0-2.6-0.4-3.6-1.3c-0.9-0.9-1.4-2-1.4-3.4v-0.3c0-1,0.2-1.8,0.6-2.5c0.4-0.7,1-1.3,1.7-1.8
			c0.7-0.4,1.5-0.6,2.4-0.6c1.4,0,2.5,0.4,3.3,1.2c0.8,0.8,1.2,2,1.2,3.5v0.7h-7.3c0,0.9,0.3,1.7,0.9,2.3c0.6,0.6,1.3,0.9,2.3,0.9
			c0.7,0,1.2-0.1,1.7-0.4c0.5-0.2,0.8-0.5,1.2-0.9l1.1,0.8C31.9,76.5,30.6,77.2,28.8,77.2z M28.5,68.6c-0.7,0-1.4,0.2-1.9,0.7
			c-0.5,0.5-0.8,1.2-0.9,2h5.4v-0.1c-0.1-0.8-0.3-1.5-0.8-1.9C29.9,68.8,29.3,68.6,28.5,68.6z"/>
		<path class="st0" d="M45.2,74.7l2.1-7.3h1.8L46,77h-1.5l-2.6-7.3L39.4,77h-1.5l-3.1-9.6h1.8l2.1,7.2l2.5-7.2h1.5L45.2,74.7z"/>
		<path class="st0" d="M60.7,72.3c0,1.5-0.4,2.6-1.1,3.5c-0.8,0.9-1.8,1.3-3,1.3c-1.4,0-2.4-0.4-3.2-1.3L53.3,77h-1.7V63.4h1.8v5.1
			c0.7-0.8,1.8-1.2,3.1-1.2c1.3,0,2.3,0.4,3.1,1.3c0.7,0.9,1.1,2.1,1.1,3.6V72.3z M58.9,72.1c0-1.1-0.2-2-0.7-2.6
			c-0.5-0.6-1.2-0.9-2.1-0.9c-1.2,0-2.1,0.5-2.6,1.5v4.1c0.6,1,1.4,1.5,2.6,1.5c0.9,0,1.6-0.3,2.1-0.9
			C58.7,74.2,58.9,73.3,58.9,72.1z"/>
	</g>
	<g>
		<path class="st0" d="M4.4,51.1c2,0.9,4.3,1,6.5,1.4c3.3,0.7,6.7,1.3,10,1.7c1.8,0.2,4.6,0.6,5.8-1.1c1-1.4,0.3-3.4-0.9-4.7
			c-1.5-1.7-3.7-2.8-5.5-4.2c-1.7-1.4-3.3-2.9-4.6-4.6c-2.6-3.4-4.1-7.5-4.2-11.7c-0.3-7.8,3.2-18.8,11.2-21.7
			c1.3-0.5,2-1.3,1.5-2.6C21.9-1.4,13.3,1.1,9.5,2.1C6.4,3,6,6.6,5.5,9.3C4.8,13.1,4,17,3.5,20.7C2.5,28,2,35.4,2.1,42.8
			C2.2,45.7,1.3,49.7,4.4,51.1z"/>
		<path class="st0" d="M31,52.4c1.6,2.2,4.1,2.5,6.6,2.7c3,0.3,6,0.4,9,0.3c3.3,0,6.8,0,9.8-1.8c2.8-1.6,3.6-4.5,3.9-7.6
			c0.8-9.2,0-18.5,0.5-27.7c0.2-2.7,0-5.4-2.5-7c-2-1.3-4.2-0.7-5.4,1.2c-1.2,1.9-1.6,4.4-2.1,6.6c-1.4,7.2-2.9,16.2-8.9,21.2
			c-3.3,2.8-8.8,2.3-11.3,6C29.6,48.1,29.7,50.6,31,52.4z"/>
	</g>
	<path class="st1" d="M16.8,36.1c6.8,8.8,23.2,5.9,26.7-4.9c1.1-3.5,1.4-7.7,0-11.2c-1.4-3.6-4.6-6-7.7-7.8
		c-9.3-5.3-19.6,2.6-21.6,12C13.3,28.1,14,32.4,16.8,36.1z"/>
	<path class="st2" d="M57.9,3.1c-1.4-2.3-4.9-2.2-7.2-2.2C46.1,1,41.6,1.2,37,1.1c-2.8-0.1-6.3-0.4-8.5,1.7
		c-2.4,2.4,2.2,3.4,3.8,3.8c2.8,0.5,5.4,1.9,7.5,3.9c2.4,2.3,3.5,6,6.3,7.9c1.7,1.1,2.8-0.7,3.3-2.1c1.3-3,2-6.5,4.9-8.3
		c0.8-0.5,2.1-1.2,3-2.1C58.1,5.1,58.5,4.2,57.9,3.1z"/>
</g>
</svg>
